
<svg width="80px" height="80px" viewBox="0 0 80 80" version="1.1" xmlns="http://www.w3.org/2000/svg" xmlns:xlink="http://www.w3.org/1999/xlink">
    <title>logo_80</title>
    <g id="页面-1" stroke="none" stroke-width="1" fill="none" fill-rule="evenodd">
        <g id="推荐用小程序或APP打开-实验1" transform="translate(-32.000000, -1258.000000)" fill-rule="nonzero">
            <g id="编组-22" transform="translate(0.000000, 1122.000000)">
                <g id="编组-2" transform="translate(0.000000, 100.000000)">
                    <g id="编组" transform="translate(32.000000, 36.000000)">
                        <path d="M17.9104478,0 L62.0895522,0 C71.9812194,1.7356439e-15 80,8.0187806 80,17.9104478 L80,62.0895522 C80,71.9812194 71.9812194,80 62.0895522,80 L17.9104478,80 C8.0187806,80 4.76409353e-15,71.9812194 0,62.0895522 L0,17.9104478 C2.34133383e-15,8.0187806 8.0187806,5.36978346e-15 17.9104478,0 Z" id="path-1" fill="#2B65F5"></path>
                        <polygon id="Fill-7" fill="#FFFFFF" points="38.601526 8.18181818 35.5178781 25.9201462 5.45454545 25.9725922 18.516153 40.2668446 33.0128388 40.2668446 26.072518 80 44.5662006 80 51.5082897 40.2668446 73.3362832 40.2668446 74.0947684 40.2498448"></polygon>
                        <path d="M79.4899402,16.5932846 L62.4199788,8.72029721e-14 L60.4540757,14.1671157 C60.2385781,15.4330455 61.1789313,16.5932846 62.4199788,16.5932846 L79.4899402,16.5932846 Z" id="Fill-4" fill="#02DCFF"></path>
                    </g>
                </g>
            </g>
        </g>
    </g>
</svg>